<?xml version="1.0" encoding="utf-8"?>
<!-- Generator: Adobe Illustrator 19.1.0, SVG Export Plug-In . SVG Version: 6.00 Build 0)  -->
<svg version="1.1" id="Layer_1" xmlns="http://www.w3.org/2000/svg" xmlns:xlink="http://www.w3.org/1999/xlink" x="0px" y="0px"
	 viewBox="-293 385 20 20" style="enable-background:new -293 385 20 20;" xml:space="preserve">
<style type="text/css">
	.st0{fill:#FFFFFF;}
	.st1{fill:none;}
</style>
<path class="st0" d="M-283,385c-5.5,0-10,4.5-10,10s4.5,10,10,10c5.5,0,10-4.5,10-10S-277.5,385-283,385z M-283,403
	c-4.4,0-8-3.6-8-8s3.6-8,8-8s8,3.6,8,8S-278.6,403-283,403z"/>
<path class="st1" d="M-295,383h24v24h-24V383z"/>
<path class="st0" d="M-282.5,390h-1.5v6l5.2,3.1l0.8-1.2l-4.5-2.7V390z"/>
</svg>
