<?xml version="1.0" encoding="utf-8"?>
<!-- Generator: Adobe Illustrator 19.1.0, SVG Export Plug-In . SVG Version: 6.00 Build 0)  -->
<svg version="1.1" id="Layer_1" xmlns="http://www.w3.org/2000/svg" xmlns:xlink="http://www.w3.org/1999/xlink" x="0px" y="0px"
	 viewBox="-293 385 20 20" style="enable-background:new -293 385 20 20;" xml:space="preserve">
<style type="text/css">
	.st0{fill:none;}
	.st1{fill:#FFFFFF;}
</style>
<path class="st0" d="M-293,385h24v24h-24V385z"/>
<path class="st1" d="M-283,385c-5.5,0-10,4.5-10,10s4.5,10,10,10c5.5,0,10-4.5,10-10S-277.5,385-283,385z M-276.1,391h-3
	c-0.3-1.2-0.8-2.5-1.4-3.6C-278.6,388.1-277,389.4-276.1,391z M-283,387c0.8,1.2,1.5,2.5,1.9,4h-3.8
	C-284.5,389.6-283.8,388.2-283,387z M-290.7,397c-0.2-0.6-0.3-1.3-0.3-2s0.1-1.4,0.3-2h3.4c-0.1,0.7-0.1,1.3-0.1,2s0.1,1.3,0.1,2
	H-290.7z M-289.9,399h3c0.3,1.2,0.8,2.5,1.4,3.6C-287.4,401.9-289,400.7-289.9,399z M-287,391h-3c1-1.7,2.5-2.9,4.3-3.6
	C-286.2,388.5-286.6,389.8-287,391z M-283,403c-0.8-1.2-1.5-2.5-1.9-4h3.8C-281.5,400.4-282.2,401.8-283,403z M-280.7,397h-4.7
	c-0.1-0.7-0.2-1.3-0.2-2s0.1-1.4,0.2-2h4.7c0.1,0.6,0.2,1.3,0.2,2S-280.6,396.3-280.7,397z M-280.4,402.6c0.6-1.1,1.1-2.3,1.4-3.6h3
	C-277,400.6-278.6,401.9-280.4,402.6z M-278.6,397c0.1-0.7,0.1-1.3,0.1-2s-0.1-1.3-0.1-2h3.4c0.2,0.6,0.3,1.3,0.3,2s-0.1,1.4-0.3,2
	H-278.6z"/>
</svg>
