<?xml version="1.0" encoding="utf-8"?>
<!-- Generator: Adobe Illustrator 19.1.0, SVG Export Plug-In . SVG Version: 6.00 Build 0)  -->
<svg version="1.1" xmlns="http://www.w3.org/2000/svg" xmlns:xlink="http://www.w3.org/1999/xlink" x="0px" y="0px"
	 viewBox="0 0 293.1 124.7" style="enable-background:new 0 0 293.1 124.7;" xml:space="preserve">
<style type="text/css">
	.st0{display:none;}
	.st1{display:inline;}
</style>
<g id="Iso_Guide" class="st0">
	<g class="st1">
	</g>
</g>
<g id="Layer_1">
	<g>
		<path d="M-598.2,74.6l-21.6-10.1V38.8L-651,53.4v45.9c0,1.7,1.7,3.1,3.9,3.1s3.9-1.4,3.9-3.1V82.7l15.8,7.4l0,20.2
			c0,1.7,1.7,3.1,3.9,3.1c0,0,0,0,0,0c2.1,0,3.9-1.4,3.9-3.1l0-20.3l15.7-7.4v16.6c0,1.7,1.7,3.1,3.9,3.1s3.9-1.4,3.9-3.1V77.3
			C-596.3,76.2-597,75.1-598.2,74.6z M-627.5,49.6v14.8l-15.8,7.4V57L-627.5,49.6z"/>
	</g>
	<g>
		<path d="M-555.7,83.1c-0.1,2.1-0.9,3.9-2.5,5.3c-1.6,1.5-3.5,2.2-5.7,2.2c-1.9,0-3.6-0.4-5.1-1.2c-1.8-1-3-2.4-3.5-4.3
			c-0.1-0.6-0.1-1.1,0.2-1.6c0.3-0.5,0.7-0.8,1.3-0.9s1.1-0.1,1.6,0.2c0.5,0.3,0.8,0.7,0.9,1.3c0.2,0.8,0.8,1.4,1.7,1.8
			c0.8,0.4,1.8,0.6,2.9,0.6c1.1,0,2-0.3,2.8-1c0.8-0.7,1.2-1.5,1.3-2.5c0-0.6-0.2-1.2-0.7-1.6c-0.7-0.8-1.9-1.2-3.7-1.2h0
			c0,0-0.1,0,0,0c0,0,0,0,0,0c-2.9,0-5.1-0.9-6.6-2.5c-1.3-1.3-1.8-2.9-1.8-4.7c0.1-2.1,0.9-3.9,2.5-5.3s3.5-2.2,5.7-2.2
			c1.9,0,3.6,0.4,5.1,1.2c1.8,1,3,2.4,3.5,4.3c0.1,0.6,0.1,1.1-0.2,1.6c-0.3,0.5-0.7,0.8-1.2,0.9s-1.1,0.1-1.6-0.2
			c-0.5-0.3-0.8-0.7-0.9-1.3c-0.2-0.8-0.8-1.4-1.7-1.8c-0.8-0.4-1.8-0.6-2.9-0.6c-1.1,0-2.1,0.3-2.8,1c-0.8,0.7-1.2,1.5-1.2,2.5
			c0,0.6,0.2,1.2,0.7,1.7c0.7,0.8,1.9,1.2,3.7,1.2h0.1c2.9,0,5.1,0.9,6.6,2.5C-556.2,79.7-555.6,81.3-555.7,83.1z"/>
		<path d="M-533.4,86.4c0.6,0,1.1,0.2,1.5,0.6c0.4,0.4,0.6,0.9,0.6,1.5s-0.2,1.1-0.6,1.5c-0.4,0.4-0.9,0.6-1.5,0.6h-12.7
			c-0.6,0-1.1-0.2-1.5-0.6c-0.4-0.4-0.6-0.9-0.6-1.5V67.4c0-0.6,0.2-1.1,0.6-1.5c0.4-0.4,0.9-0.6,1.5-0.6h0l12.7,0
			c0.6,0,1.1,0.2,1.5,0.6c0.4,0.4,0.6,0.9,0.6,1.5s-0.2,1.1-0.6,1.5c-0.4,0.4-0.9,0.6-1.5,0.6h0l-10.6,0v6.4h7.7
			c0.6,0,1.1,0.2,1.5,0.6c0.4,0.4,0.6,0.9,0.6,1.5s-0.2,1.1-0.6,1.5c-0.4,0.4-0.9,0.6-1.5,0.6h-7.7v6.4H-533.4z"/>
		<path d="M-524.7,90.4c-0.5-0.2-0.9-0.6-1.1-1.1c-0.2-0.5-0.2-1.1,0-1.6l2.2-5.4v0l6.5-15.6c0-0.1,0.1-0.1,0.1-0.2l0-0.1
			c0,0,0.1-0.1,0.1-0.1c0,0,0,0,0.1-0.1c0,0,0.1-0.1,0.1-0.1c0,0,0,0,0.1-0.1c0,0,0.1-0.1,0.1-0.1c0,0,0,0,0.1-0.1
			c0,0,0.1-0.1,0.1-0.1c0,0,0,0,0.1-0.1c0,0,0.1-0.1,0.1-0.1l0.1-0.1c0.1,0,0.1-0.1,0.1-0.1c0,0,0.1,0,0.1-0.1c0.1,0,0.1,0,0.1,0
			s0,0,0.1,0c0.1,0,0.1,0,0.1,0c0,0,0.1,0,0.1,0l0.1,0c0,0,0.1,0,0.1,0l0.1,0c0,0,0,0,0.1,0c0,0,0.1,0,0.1,0c0,0,0.1,0,0.1,0h0.1
			l0.1,0l0.1,0c0,0,0.1,0,0.1,0c0.1,0,0.1,0,0.1,0c0.1,0,0.3,0.1,0.4,0.2c0,0,0,0,0.1,0s0.1,0.1,0.1,0.1l0.1,0.1
			c0,0,0.1,0.1,0.1,0.1c0,0,0,0,0.1,0.1s0.1,0.1,0.1,0.1c0,0,0,0,0.1,0.1c0,0,0.1,0.1,0.1,0.1l0.1,0.1c0,0,0.1,0.1,0.1,0.1
			s0,0,0.1,0.1s0.1,0.1,0.1,0.1c0,0.1,0.1,0.1,0.1,0.2l6.5,15.6v0l2.2,5.4c0.2,0.5,0.2,1.1,0,1.6c-0.2,0.5-0.6,0.9-1.1,1.1
			c-0.3,0.1-0.5,0.2-0.8,0.2c-0.9,0-1.6-0.4-1.9-1.3l-1.7-4.1h-10.2l-1.7,4.1c-0.4,0.9-1,1.3-1.9,1.3c-0.3,0-0.4,0-0.4,0
			S-524.5,90.5-524.7,90.4z M-511.9,81.1l-3.4-8.2l-3.4,8.2H-511.9z"/>
		<path d="M-492.6,69.5h-5.2c-0.6,0-1.1-0.2-1.5-0.6c-0.4-0.4-0.6-0.9-0.6-1.5s0.2-1.1,0.6-1.5c0.4-0.4,0.9-0.6,1.5-0.6h14.6
			c0.6,0,1,0.2,1.5,0.6c0.4,0.4,0.6,0.9,0.6,1.5s-0.2,1.1-0.6,1.5c-0.4,0.4-0.9,0.6-1.5,0.6h-5.2v19c0,0.6-0.2,1.1-0.6,1.5
			c-0.4,0.4-0.9,0.6-1.5,0.6s-1.1-0.2-1.5-0.6c-0.4-0.4-0.6-0.9-0.6-1.5V69.5z"/>
		<path d="M-446,65.9c0.4,0.4,0.7,0.8,0.8,1.4c0.1,0.6-0.1,1.1-0.5,1.5l-7.6,9.5v10.2c0,0.6-0.2,1.1-0.6,1.5
			c-0.4,0.4-0.9,0.6-1.5,0.6s-1.1-0.2-1.5-0.6c-0.4-0.4-0.6-0.9-0.6-1.5V78.3l-7.6-9.5c-0.4-0.4-0.5-1-0.4-1.5
			c0.1-0.6,0.3-1,0.8-1.4c0.4-0.4,1-0.5,1.5-0.5c0.6,0.1,1,0.3,1.4,0.8l6.5,8.1l6.5-8.1c0.4-0.4,0.8-0.7,1.4-0.8
			C-447,65.4-446.4,65.5-446,65.9z"/>
		<path d="M-427.4,90.6c-3.5,0-6.5-1.2-8.9-3.7c-2.5-2.5-3.7-5.4-3.7-8.9s1.2-6.5,3.7-8.9c2.5-2.5,5.4-3.7,8.9-3.7s6.5,1.2,8.9,3.7
			c2.5,2.5,3.7,5.4,3.7,8.9s-1.2,6.5-3.7,8.9C-420.9,89.3-423.9,90.6-427.4,90.6z M-427.4,69.5c-2.3,0-4.3,0.8-6,2.5
			c-1.7,1.7-2.5,3.7-2.5,6s0.8,4.3,2.5,6c1.7,1.7,3.6,2.5,6,2.5s4.3-0.8,6-2.5c1.7-1.7,2.5-3.6,2.5-6s-0.8-4.3-2.5-6
			C-423,70.3-425,69.5-427.4,69.5z"/>
		<path d="M-391.2,65.4c0.6,0,1,0.2,1.4,0.6s0.6,0.9,0.6,1.4v14.2c0,2.5-0.9,4.6-2.6,6.4s-3.9,2.6-6.3,2.6c-2.5,0-4.6-0.9-6.4-2.6
			s-2.6-3.9-2.6-6.4V67.4c0-0.6,0.2-1,0.6-1.4s0.9-0.6,1.4-0.6s1,0.2,1.4,0.6s0.6,0.9,0.6,1.4v14.2c0,1.4,0.5,2.5,1.4,3.5
			s2.1,1.4,3.5,1.4c1.3,0,2.5-0.5,3.5-1.4s1.4-2.1,1.4-3.5V67.4c0-0.6,0.2-1,0.6-1.4S-391.8,65.4-391.2,65.4z"/>
		<path d="M-363.6,72.7c0,1.5-0.5,2.9-1.4,4.2c-0.9,1.2-2.1,2.1-3.7,2.7l4,8.1c0.2,0.5,0.3,1,0.1,1.6c-0.2,0.5-0.5,0.9-1,1.2
			c-0.3,0.1-0.6,0.2-0.9,0.2c-0.9,0-1.5-0.4-1.8-1.2l-4.7-9.4h-3.6v8.4c0,0.6-0.2,1-0.6,1.5c-0.4,0.4-0.9,0.6-1.5,0.6
			c-0.6,0-1-0.2-1.5-0.6c-0.4-0.4-0.6-0.9-0.6-1.5v-21c0-0.6,0.2-1.1,0.6-1.5c0.4-0.4,0.9-0.6,1.5-0.6h7.3c2.2,0,4,0.7,5.5,2.1
			C-364.4,68.9-363.6,70.6-363.6,72.7z M-371.3,75.9c1,0,1.8-0.4,2.5-1c0.7-0.6,1-1.4,1-2.2c0-0.9-0.4-1.6-1.1-2.3s-1.6-0.9-2.6-0.9
			h-5.2v6.4H-371.3z"/>
		<path d="M-340.4,83.1c-0.1,2.1-0.9,3.9-2.5,5.3c-1.6,1.5-3.5,2.2-5.7,2.2c-1.9,0-3.6-0.4-5.1-1.2c-1.8-1-3-2.4-3.5-4.3
			c-0.1-0.6-0.1-1.1,0.2-1.6c0.3-0.5,0.7-0.8,1.3-0.9s1.1-0.1,1.6,0.2c0.5,0.3,0.8,0.7,0.9,1.3c0.2,0.8,0.8,1.4,1.7,1.8
			c0.8,0.4,1.8,0.6,2.9,0.6c1.1,0,2-0.3,2.8-1c0.8-0.7,1.2-1.5,1.3-2.5c0-0.6-0.2-1.2-0.7-1.6c-0.7-0.8-1.9-1.2-3.7-1.2h0
			c0,0-0.1,0,0,0c0,0,0,0,0,0c-2.9,0-5.1-0.9-6.6-2.5c-1.3-1.3-1.8-2.9-1.8-4.7c0.1-2.1,0.9-3.9,2.5-5.3s3.5-2.2,5.7-2.2
			c1.9,0,3.6,0.4,5.1,1.2c1.8,1,3,2.4,3.5,4.3c0.1,0.6,0.1,1.1-0.2,1.6c-0.3,0.5-0.7,0.8-1.2,0.9s-1.1,0.1-1.6-0.2
			c-0.5-0.3-0.8-0.7-0.9-1.3c-0.2-0.8-0.8-1.4-1.7-1.8c-0.8-0.4-1.8-0.6-2.9-0.6c-1.1,0-2.1,0.3-2.8,1c-0.8,0.7-1.2,1.5-1.2,2.5
			c0,0.6,0.2,1.2,0.7,1.7c0.7,0.8,1.9,1.2,3.7,1.2h0.1c2.9,0,5.1,0.9,6.6,2.5C-340.9,79.7-340.3,81.3-340.4,83.1z"/>
		<path d="M-318,86.4c0.6,0,1.1,0.2,1.5,0.6c0.4,0.4,0.6,0.9,0.6,1.5s-0.2,1.1-0.6,1.5c-0.4,0.4-0.9,0.6-1.5,0.6h-12.7
			c-0.6,0-1.1-0.2-1.5-0.6c-0.4-0.4-0.6-0.9-0.6-1.5V67.4c0-0.6,0.2-1.1,0.6-1.5c0.4-0.4,0.9-0.6,1.5-0.6h0l12.7,0
			c0.6,0,1.1,0.2,1.5,0.6c0.4,0.4,0.6,0.9,0.6,1.5s-0.2,1.1-0.6,1.5c-0.4,0.4-0.9,0.6-1.5,0.6h0l-10.6,0v6.4h7.7
			c0.6,0,1.1,0.2,1.5,0.6c0.4,0.4,0.6,0.9,0.6,1.5s-0.2,1.1-0.6,1.5c-0.4,0.4-0.9,0.6-1.5,0.6h-7.7v6.4H-318z"/>
		<path d="M-307,65.4c0.6,0,1.1,0.2,1.5,0.6c0.4,0.4,0.6,0.9,0.6,1.5v19h9.3c0.6,0,1.1,0.2,1.5,0.6c0.4,0.4,0.6,0.9,0.6,1.5
			s-0.2,1.1-0.6,1.5c-0.4,0.4-0.9,0.6-1.5,0.6H-307c-0.6,0-1.1-0.2-1.5-0.6c-0.4-0.4-0.6-0.9-0.6-1.5V67.5c0-0.6,0.2-1.1,0.6-1.5
			C-308,65.6-307.5,65.4-307,65.4z"/>
		<path d="M-272.5,65.4c0.6,0,1.1,0.2,1.5,0.6c0.4,0.4,0.6,0.9,0.6,1.5s-0.2,1.1-0.6,1.5c-0.4,0.4-0.9,0.6-1.5,0.6h0l-10.6,0v6.4
			h7.7c0.6,0,1.1,0.2,1.5,0.6c0.4,0.4,0.6,0.9,0.6,1.5s-0.2,1.1-0.6,1.5c-0.4,0.4-0.9,0.6-1.5,0.6h-7.7v8.5c0,0.6-0.2,1.1-0.6,1.5
			c-0.4,0.4-0.9,0.6-1.5,0.6s-1.1-0.2-1.5-0.6c-0.4-0.4-0.6-0.9-0.6-1.5V67.4c0-0.6,0.2-1.1,0.6-1.5c0.4-0.4,0.9-0.6,1.5-0.6h0
			L-272.5,65.4z"/>
	</g>
	<g>
		<path d="M161.7,35.8l-21.6-10.1V0l-31.2,14.7v45.9c0,1.7,1.7,3.1,3.9,3.1c2.1,0,3.9-1.4,3.9-3.1V44l15.8,7.4l0,20.2
			c0,1.7,1.7,3.1,3.9,3.1c0,0,0,0,0,0c2.1,0,3.9-1.4,3.9-3.1l0-20.3l15.7-7.4v16.6c0,1.7,1.7,3.1,3.9,3.1s3.9-1.4,3.9-3.1V38.5
			C163.6,37.4,162.9,36.4,161.7,35.8z M132.4,10.9v14.8l-15.8,7.4V18.3L132.4,10.9z"/>
	</g>
	<g>
		<path d="M16.9,117.2c-0.1,2.1-0.9,3.9-2.5,5.3c-1.6,1.5-3.5,2.2-5.7,2.2c-1.9,0-3.6-0.4-5.1-1.2c-1.8-1-3-2.4-3.5-4.3
			c-0.1-0.6-0.1-1.1,0.2-1.6c0.3-0.5,0.7-0.8,1.3-0.9s1.1-0.1,1.6,0.2c0.5,0.3,0.8,0.7,0.9,1.3c0.2,0.8,0.8,1.4,1.7,1.8
			c0.8,0.4,1.8,0.6,2.9,0.6c1.1,0,2-0.3,2.8-1c0.8-0.7,1.2-1.5,1.3-2.5c0-0.6-0.2-1.2-0.7-1.6c-0.7-0.8-1.9-1.2-3.7-1.2h0
			c0,0-0.1,0,0,0c0,0,0,0,0,0c-2.9,0-5.1-0.9-6.6-2.5c-1.3-1.3-1.8-2.9-1.8-4.7c0.1-2.1,0.9-3.9,2.5-5.3s3.5-2.2,5.7-2.2
			c1.9,0,3.6,0.4,5.1,1.2c1.8,1,3,2.4,3.5,4.3c0.1,0.6,0.1,1.1-0.2,1.6c-0.3,0.5-0.7,0.8-1.2,0.9s-1.1,0.1-1.6-0.2
			c-0.5-0.3-0.8-0.7-0.9-1.3c-0.2-0.8-0.8-1.4-1.7-1.8c-0.8-0.4-1.8-0.6-2.9-0.6c-1.1,0-2.1,0.3-2.8,1c-0.8,0.7-1.2,1.5-1.2,2.5
			c0,0.6,0.2,1.2,0.7,1.7c0.7,0.8,1.9,1.2,3.7,1.2h0.1c2.9,0,5.1,0.9,6.6,2.5C16.4,113.9,17,115.5,16.9,117.2z"/>
		<path d="M39.2,120.6c0.6,0,1.1,0.2,1.5,0.6c0.4,0.4,0.6,0.9,0.6,1.5s-0.2,1.1-0.6,1.5c-0.4,0.4-0.9,0.6-1.5,0.6H26.5
			c-0.6,0-1.1-0.2-1.5-0.6c-0.4-0.4-0.6-0.9-0.6-1.5v-21.1c0-0.6,0.2-1.1,0.6-1.5c0.4-0.4,0.9-0.6,1.5-0.6h0l12.7,0
			c0.6,0,1.1,0.2,1.5,0.6c0.4,0.4,0.6,0.9,0.6,1.5s-0.2,1.1-0.6,1.5c-0.4,0.4-0.9,0.6-1.5,0.6h0l-10.6,0v6.4h7.7
			c0.6,0,1.1,0.2,1.5,0.6c0.4,0.4,0.6,0.9,0.6,1.5s-0.2,1.1-0.6,1.5c-0.4,0.4-0.9,0.6-1.5,0.6h-7.7v6.4H39.2z"/>
		<path d="M47.9,124.6c-0.5-0.2-0.9-0.6-1.1-1.1c-0.2-0.5-0.2-1.1,0-1.6l2.2-5.4v0l6.5-15.6c0-0.1,0.1-0.1,0.1-0.2l0-0.1
			c0,0,0.1-0.1,0.1-0.1c0,0,0,0,0.1-0.1c0,0,0.1-0.1,0.1-0.1c0,0,0,0,0.1-0.1c0,0,0.1-0.1,0.1-0.1c0,0,0,0,0.1-0.1
			c0,0,0.1-0.1,0.1-0.1c0,0,0,0,0.1-0.1c0,0,0.1-0.1,0.1-0.1l0.1-0.1c0.1,0,0.1-0.1,0.1-0.1c0,0,0.1,0,0.1-0.1c0.1,0,0.1,0,0.1,0
			s0,0,0.1,0c0.1,0,0.1,0,0.1,0c0,0,0.1,0,0.1,0l0.1,0c0,0,0.1,0,0.1,0l0.1,0c0,0,0,0,0.1,0c0,0,0.1,0,0.1,0c0,0,0.1,0,0.1,0h0.1
			l0.1,0l0.1,0c0,0,0.1,0,0.1,0c0.1,0,0.1,0,0.1,0c0.1,0,0.3,0.1,0.4,0.2c0,0,0,0,0.1,0s0.1,0.1,0.1,0.1l0.1,0.1
			c0,0,0.1,0.1,0.1,0.1c0,0,0,0,0.1,0.1s0.1,0.1,0.1,0.1c0,0,0,0,0.1,0.1c0,0,0.1,0.1,0.1,0.1l0.1,0.1c0,0,0.1,0.1,0.1,0.1
			s0,0,0.1,0.1s0.1,0.1,0.1,0.1c0,0.1,0.1,0.1,0.1,0.2l6.5,15.6v0l2.2,5.4c0.2,0.5,0.2,1.1,0,1.6c-0.2,0.5-0.6,0.9-1.1,1.1
			c-0.3,0.1-0.5,0.2-0.8,0.2c-0.9,0-1.6-0.4-1.9-1.3l-1.7-4.1H52.3l-1.7,4.1c-0.4,0.9-1,1.3-1.9,1.3c-0.3,0-0.4,0-0.4,0
			S48.1,124.7,47.9,124.6z M60.7,115.3l-3.4-8.2l-3.4,8.2H60.7z"/>
		<path d="M80,103.6h-5.2c-0.6,0-1.1-0.2-1.5-0.6c-0.4-0.4-0.6-0.9-0.6-1.5s0.2-1.1,0.6-1.5c0.4-0.4,0.9-0.6,1.5-0.6h14.6
			c0.6,0,1,0.2,1.5,0.6c0.4,0.4,0.6,0.9,0.6,1.5s-0.2,1.1-0.6,1.5c-0.4,0.4-0.9,0.6-1.5,0.6h-5.2v19c0,0.6-0.2,1.1-0.6,1.5
			c-0.4,0.4-0.9,0.6-1.5,0.6s-1.1-0.2-1.5-0.6c-0.4-0.4-0.6-0.9-0.6-1.5V103.6z"/>
		<path d="M117.6,100.1c0.4,0.4,0.7,0.8,0.8,1.4c0.1,0.6-0.1,1.1-0.5,1.5l-7.6,9.5v10.2c0,0.6-0.2,1.1-0.6,1.5
			c-0.4,0.4-0.9,0.6-1.5,0.6s-1.1-0.2-1.5-0.6c-0.4-0.4-0.6-0.9-0.6-1.5v-10.2l-7.6-9.5c-0.4-0.4-0.5-1-0.4-1.5
			c0.1-0.6,0.3-1,0.8-1.4c0.4-0.4,1-0.5,1.5-0.5c0.6,0.1,1,0.3,1.4,0.8l6.5,8.1l6.5-8.1c0.4-0.4,0.8-0.7,1.4-0.8
			C116.6,99.5,117.1,99.7,117.6,100.1z"/>
		<path d="M136.2,124.7c-3.5,0-6.5-1.2-8.9-3.7c-2.5-2.5-3.7-5.4-3.7-8.9s1.2-6.5,3.7-8.9c2.5-2.5,5.4-3.7,8.9-3.7s6.5,1.2,8.9,3.7
			c2.5,2.5,3.7,5.4,3.7,8.9s-1.2,6.5-3.7,8.9C142.7,123.5,139.7,124.7,136.2,124.7z M136.2,103.6c-2.3,0-4.3,0.8-6,2.5
			c-1.7,1.7-2.5,3.7-2.5,6s0.8,4.3,2.5,6c1.7,1.7,3.6,2.5,6,2.5s4.3-0.8,6-2.5c1.7-1.7,2.5-3.6,2.5-6s-0.8-4.3-2.5-6
			C140.6,104.5,138.6,103.6,136.2,103.6z"/>
		<path d="M172.4,99.5c0.6,0,1,0.2,1.4,0.6s0.6,0.9,0.6,1.4v14.2c0,2.5-0.9,4.6-2.6,6.4s-3.9,2.6-6.3,2.6c-2.5,0-4.6-0.9-6.4-2.6
			s-2.6-3.9-2.6-6.4v-14.2c0-0.6,0.2-1,0.6-1.4s0.9-0.6,1.4-0.6s1,0.2,1.4,0.6s0.6,0.9,0.6,1.4v14.2c0,1.4,0.5,2.5,1.4,3.5
			s2.1,1.4,3.5,1.4c1.3,0,2.5-0.5,3.5-1.4s1.4-2.1,1.4-3.5v-14.2c0-0.6,0.2-1,0.6-1.4S171.8,99.5,172.4,99.5z"/>
		<path d="M200,106.8c0,1.5-0.5,2.9-1.4,4.2c-0.9,1.2-2.1,2.1-3.7,2.7l4,8.1c0.2,0.5,0.3,1,0.1,1.6c-0.2,0.5-0.5,0.9-1,1.2
			c-0.3,0.1-0.6,0.2-0.9,0.2c-0.9,0-1.5-0.4-1.8-1.2l-4.7-9.4h-3.6v8.4c0,0.6-0.2,1-0.6,1.5c-0.4,0.4-0.9,0.6-1.5,0.6
			c-0.6,0-1-0.2-1.5-0.6c-0.4-0.4-0.6-0.9-0.6-1.5v-21c0-0.6,0.2-1.1,0.6-1.5c0.4-0.4,0.9-0.6,1.5-0.6h7.3c2.2,0,4,0.7,5.5,2.1
			C199.2,103.1,200,104.8,200,106.8z M192.3,110c1,0,1.8-0.4,2.5-1c0.7-0.6,1-1.4,1-2.2c0-0.9-0.4-1.6-1.1-2.3s-1.6-0.9-2.6-0.9
			h-5.2v6.4H192.3z"/>
		<path d="M223.2,117.2c-0.1,2.1-0.9,3.9-2.5,5.3c-1.6,1.5-3.5,2.2-5.7,2.2c-1.9,0-3.6-0.4-5.1-1.2c-1.8-1-3-2.4-3.5-4.3
			c-0.1-0.6-0.1-1.1,0.2-1.6c0.3-0.5,0.7-0.8,1.3-0.9s1.1-0.1,1.6,0.2c0.5,0.3,0.8,0.7,0.9,1.3c0.2,0.8,0.8,1.4,1.7,1.8
			c0.8,0.4,1.8,0.6,2.9,0.6c1.1,0,2-0.3,2.8-1c0.8-0.7,1.2-1.5,1.3-2.5c0-0.6-0.2-1.2-0.7-1.6c-0.7-0.8-1.9-1.2-3.7-1.2h0
			c0,0-0.1,0,0,0c0,0,0,0,0,0c-2.9,0-5.1-0.9-6.6-2.5c-1.3-1.3-1.8-2.9-1.8-4.7c0.1-2.1,0.9-3.9,2.5-5.3s3.5-2.2,5.7-2.2
			c1.9,0,3.6,0.4,5.1,1.2c1.8,1,3,2.4,3.5,4.3c0.1,0.6,0.1,1.1-0.2,1.6c-0.3,0.5-0.7,0.8-1.2,0.9s-1.1,0.1-1.6-0.2
			c-0.5-0.3-0.8-0.7-0.9-1.3c-0.2-0.8-0.8-1.4-1.7-1.8c-0.8-0.4-1.8-0.6-2.9-0.6c-1.1,0-2.1,0.3-2.8,1c-0.8,0.7-1.2,1.5-1.2,2.5
			c0,0.6,0.2,1.2,0.7,1.7c0.7,0.8,1.9,1.2,3.7,1.2h0.1c2.9,0,5.1,0.9,6.6,2.5C222.7,113.9,223.3,115.5,223.2,117.2z"/>
		<path d="M245.6,120.6c0.6,0,1.1,0.2,1.5,0.6c0.4,0.4,0.6,0.9,0.6,1.5s-0.2,1.1-0.6,1.5c-0.4,0.4-0.9,0.6-1.5,0.6h-12.7
			c-0.6,0-1.1-0.2-1.5-0.6c-0.4-0.4-0.6-0.9-0.6-1.5v-21.1c0-0.6,0.2-1.1,0.6-1.5c0.4-0.4,0.9-0.6,1.5-0.6h0l12.7,0
			c0.6,0,1.1,0.2,1.5,0.6c0.4,0.4,0.6,0.9,0.6,1.5s-0.2,1.1-0.6,1.5c-0.4,0.4-0.9,0.6-1.5,0.6h0l-10.6,0v6.4h7.7
			c0.6,0,1.1,0.2,1.5,0.6c0.4,0.4,0.6,0.9,0.6,1.5s-0.2,1.1-0.6,1.5c-0.4,0.4-0.9,0.6-1.5,0.6H235v6.4H245.6z"/>
		<path d="M256.6,99.5c0.6,0,1.1,0.2,1.5,0.6c0.4,0.4,0.6,0.9,0.6,1.5v19h9.3c0.6,0,1.1,0.2,1.5,0.6c0.4,0.4,0.6,0.9,0.6,1.5
			s-0.2,1.1-0.6,1.5c-0.4,0.4-0.9,0.6-1.5,0.6h-11.4c-0.6,0-1.1-0.2-1.5-0.6c-0.4-0.4-0.6-0.9-0.6-1.5v-21.1c0-0.6,0.2-1.1,0.6-1.5
			C255.6,99.7,256.1,99.5,256.6,99.5z"/>
		<path d="M291.1,99.5c0.6,0,1.1,0.2,1.5,0.6c0.4,0.4,0.6,0.9,0.6,1.5s-0.2,1.1-0.6,1.5c-0.4,0.4-0.9,0.6-1.5,0.6h0l-10.6,0v6.4h7.7
			c0.6,0,1.1,0.2,1.5,0.6c0.4,0.4,0.6,0.9,0.6,1.5s-0.2,1.1-0.6,1.5c-0.4,0.4-0.9,0.6-1.5,0.6h-7.7v8.5c0,0.6-0.2,1.1-0.6,1.5
			c-0.4,0.4-0.9,0.6-1.5,0.6s-1.1-0.2-1.5-0.6c-0.4-0.4-0.6-0.9-0.6-1.5v-21.1c0-0.6,0.2-1.1,0.6-1.5c0.4-0.4,0.9-0.6,1.5-0.6h0
			L291.1,99.5z"/>
	</g>
</g>
</svg>
